<?xml version="1.0" encoding="UTF-8" standalone="no"?>
<svg
   width="72pt"
   height="432pt"
   viewBox="0 0 72 432"
   version="1.1"
   id="svg19"
   sodipodi:docname="legend.svg"
   inkscape:version="1.3.1 (91b66b0, 2023-11-16)"
   xmlns:inkscape="http://www.inkscape.org/namespaces/inkscape"
   xmlns:sodipodi="http://sodipodi.sourceforge.net/DTD/sodipodi-0.dtd"
   xmlns="http://www.w3.org/2000/svg"
   xmlns:svg="http://www.w3.org/2000/svg"
   xmlns:rdf="http://www.w3.org/1999/02/22-rdf-syntax-ns#"
   xmlns:cc="http://creativecommons.org/ns#"
   xmlns:dc="http://purl.org/dc/elements/1.1/">
  <sodipodi:namedview
     id="namedview19"
     pagecolor="#505050"
     bordercolor="#eeeeee"
     borderopacity="1"
     inkscape:showpageshadow="0"
     inkscape:pageopacity="0"
     inkscape:pagecheckerboard="0"
     inkscape:deskcolor="#505050"
     inkscape:document-units="pt"
     inkscape:zoom="1.1706268"
     inkscape:cx="63.641121"
     inkscape:cy="296.84952"
     inkscape:window-width="1440"
     inkscape:window-height="872"
     inkscape:window-x="0"
     inkscape:window-y="28"
     inkscape:window-maximized="0"
     inkscape:current-layer="figure_1" />
  <metadata
     id="metadata1">
    <rdf:RDF>
      <cc:Work>
        <dc:type
           rdf:resource="http://purl.org/dc/dcmitype/StillImage" />
        <dc:date>2023-11-20T11:08:58.989194</dc:date>
        <dc:format>image/svg+xml</dc:format>
        <dc:creator>
          <cc:Agent>
            <dc:title>Matplotlib v3.8.0, https://matplotlib.org/</dc:title>
          </cc:Agent>
        </dc:creator>
      </cc:Work>
    </rdf:RDF>
  </metadata>
  <defs
     id="defs1">
    <style
       type="text/css"
       id="style1">*{stroke-linejoin: round; stroke-linecap: butt}</style>
  </defs>
  <g
     id="figure_1">
    <g
       id="patch_1">
      <path
         d="M 0 432  L 72 432  L 72 0  L 0 0  z "
         style="fill: #ffffff"
         id="path1" />
    </g>
    <g
       id="axes_1">
      <g
         id="patch_2">
        <path
           d="M 3.00024 423.120854  L 33.410697 423.120854  L 33.410697 6.799459  L 3.00024 6.799459  z "
           style="fill: #ffffff"
           id="path2" />
      </g>
      <g
         id="QuadMesh_1">
        <path
           d="M 3.00024 423.120854  L 33.410697 423.120854  L 33.410697 381.488714  L 3.00024 381.488714  L 3.00024 423.120854  "
           clip-path="url(#p2620fa2570)"
           style="fill: #ffffff"
           id="path3" />
        <path
           d="M 3.00024 381.488714  L 33.410697 381.488714  L 33.410697 339.856575  L 3.00024 339.856575  L 3.00024 381.488714  "
           clip-path="url(#p2620fa2570)"
           style="fill: #fbf3e3"
           id="path4" />
        <path
           d="M 3.00024 339.856575  L 33.410697 339.856575  L 33.410697 298.224435  L 3.00024 298.224435  L 3.00024 339.856575  "
           clip-path="url(#p2620fa2570)"
           style="fill: #f8e7c6"
           id="path5" />
        <path
           d="M 3.00024 298.224435  L 33.410697 298.224435  L 33.410697 256.592296  L 3.00024 256.592296  L 3.00024 298.224435  "
           clip-path="url(#p2620fa2570)"
           style="fill: #f4dbaa"
           id="path6" />
        <path
           d="M 3.00024 256.592296  L 33.410697 256.592296  L 33.410697 214.960156  L 3.00024 214.960156  L 3.00024 256.592296  "
           clip-path="url(#p2620fa2570)"
           style="fill: #f1cf8e"
           id="path7" />
        <path
           d="M 3.00024 214.960156  L 33.410697 214.960156  L 33.410697 173.328017  L 3.00024 173.328017  L 3.00024 214.960156  "
           clip-path="url(#p2620fa2570)"
           style="fill: #edc371"
           id="path8" />
        <path
           d="M 3.00024 173.328017  L 33.410697 173.328017  L 33.410697 131.695877  L 3.00024 131.695877  L 3.00024 173.328017  "
           clip-path="url(#p2620fa2570)"
           style="fill: #eab755"
           id="path9" />
        <path
           d="M 3.00024 131.695877  L 33.410697 131.695877  L 33.410697 90.063738  L 3.00024 90.063738  L 3.00024 131.695877  "
           clip-path="url(#p2620fa2570)"
           style="fill: #e6ab39"
           id="path10" />
        <path
           d="M 3.00024 90.063738  L 33.410697 90.063738  L 33.410697 48.431598  L 3.00024 48.431598  L 3.00024 90.063738  "
           clip-path="url(#p2620fa2570)"
           style="fill: #e39f1c"
           id="path11" />
        <path
           d="M 3.00024 48.431598  L 33.410697 48.431598  L 33.410697 6.799459  L 3.00024 6.799459  L 3.00024 48.431598  "
           clip-path="url(#p2620fa2570)"
           style="fill: #df9300"
           id="path12" />
      </g>
      <g
         id="matplotlib.axis_1" />
      <g
         id="LineCollection_1" />
      <g
         id="patch_3">
        <path
           d="M 3.00024 423.120854  L 18.205469 423.120854  L 33.410697 423.120854  L 33.410697 6.799459  L 18.205469 6.799459  L 3.00024 6.799459  L 3.00024 423.120854  z "
           style="fill: none; stroke: #000000; stroke-width: 0.8; stroke-linejoin: miter; stroke-linecap: square"
           id="path19" />
      </g>
    </g>
  </g>
  <defs
     id="defs19">
    <clipPath
       id="p2620fa2570">
      <rect
         x="3.00024"
         y="6.799459"
         width="30.410457"
         height="416.321395"
         id="rect19" />
    </clipPath>
  </defs>
</svg>
