<svg width="200" height="45" viewBox="0 0 200 45" fill="none" xmlns="http://www.w3.org/2000/svg">
<g clip-path="url(#clip0_1139_1337)">
<path d="M200 32.1224C199.944 32.3473 199.831 32.516 199.774 32.7409C199.605 33.4718 199.211 34.034 198.478 34.2027C197.463 34.4276 196.56 34.2027 196.166 33.4156C195.827 32.7971 195.715 32.0662 195.489 31.3915C195.433 31.2228 195.433 31.1104 195.376 30.8293C195.207 30.9979 195.094 31.0542 194.982 31.1666C193.459 33.1907 191.26 34.0902 188.836 34.3151C186.186 34.54 183.705 33.9778 181.562 32.4035C178.855 30.4357 177.389 27.737 176.938 24.476C176.544 21.6648 176.826 18.9099 178.122 16.3798C179.814 13.0626 182.52 11.0386 186.298 10.5325C188.836 10.1952 191.204 10.5888 193.403 12.0506C194.136 12.5566 194.813 13.1751 195.546 13.7935C195.489 13.8497 195.489 13.9622 195.433 14.0184C195.546 13.5124 195.602 13.0626 195.715 12.5566C196.053 11.2072 196.899 10.645 198.252 10.8699C198.929 10.9823 199.436 11.3759 199.662 12.0506C199.718 12.2755 199.831 12.5004 199.944 12.669C200 19.191 200 25.6567 200 32.1224ZM181.336 22.4519C181.393 23.0704 181.449 23.6326 181.562 24.2511C182.464 29.0863 187.99 31.4477 192.106 28.8052C194.925 27.0061 196.053 23.1266 194.813 19.697C193.516 16.2111 189.963 14.3557 186.411 15.3678C183.535 16.1549 181.28 19.1348 181.336 22.4519Z" fill="white"/>
<path d="M0.112983 11.0155C0.225755 10.8468 0.169369 10.7061 0.28214 10.5375C0.676839 9.69414 1.35347 9.13191 2.25564 9.13191C6.08987 9.07568 9.86771 8.90701 13.7019 9.18813C18.4383 9.52547 21.7087 12.1117 23.2311 16.5534C24.8099 21.0513 24.3025 25.3805 21.314 29.2599C19.6788 31.3964 17.4798 32.6333 14.8297 33.0269C13.5892 33.1956 12.3487 33.1956 11.1082 33.1956C9.9241 33.1956 9.07831 32.3522 8.90915 31.1153C8.79638 30.1033 9.5294 28.9788 10.5443 28.6977C11.1082 28.5852 11.6721 28.529 12.2359 28.529C15.901 28.6977 18.9458 25.6054 19.2841 22.0633C19.5097 19.8144 19.0022 17.8465 17.5926 16.1036C16.2957 14.5293 14.6605 13.686 12.6306 13.686C9.36024 13.686 5.52727 13.686 2.2569 13.686C0.960023 13.686 0.564067 13.2924 0.112983 11.943C0.112983 11.8868 0.169398 11.7356 0.112956 11.5769C0.112956 11.4564 0.0565406 11.3349 0.112983 11.0155Z" fill="white"/>
<path d="M0 20.9151C0.0563857 20.8027 0.112771 20.6902 0.169157 20.5778C0.563857 19.622 1.29687 19.0598 2.3682 19.0598C5.5258 19.0598 8.73978 19.0598 11.8974 19.0598C13.2506 19.0598 14.2092 20.0718 14.2092 21.4211C14.2092 22.7143 13.1943 23.7263 11.8974 23.7263C9.81111 23.7263 7.72484 23.7263 5.63857 23.7263C5.41303 23.7263 5.1311 23.7263 4.79278 23.7263C4.79278 24.0637 4.79278 24.3448 4.79278 24.6259C4.79278 30.3607 4.7364 36.1517 4.79278 41.8865C4.79278 43.4046 4.3417 44.4166 2.87567 44.9226C2.53736 44.9226 2.25543 44.9226 1.91711 44.9226C1.01494 44.5853 0.3947 43.9668 0 43.011C0 35.6457 0 28.2804 0 20.9151Z" fill="#FF4D01"/>
<path d="M51.4235 0C51.7618 0.168671 52.1001 0.337342 52.4384 0.506012C53.8481 1.29314 54.2991 3.14852 53.4534 4.44166C52.5512 5.84725 50.5777 6.1846 49.3372 5.2288C48.435 4.55411 48.2095 3.54209 48.3222 2.47384C48.435 1.46181 48.9989 0.730907 49.9574 0.281118C50.1266 0.168671 50.3521 0.0562236 50.5213 0C50.8032 0 51.0851 0 51.4235 0Z" fill="white"/>
<path d="M99.5772 31.111C99.0133 31.617 98.4495 32.123 97.8292 32.5728C96.2504 33.7535 94.4461 34.3157 92.4726 34.372C86.5521 34.6531 82.0976 30.605 81.1391 24.8702C80.5752 21.4405 81.0263 18.1796 82.9998 15.1997C84.8042 12.5572 87.2851 10.9829 90.4991 10.5331C93.0365 10.1958 95.4611 10.5894 97.6037 11.995C98.3367 12.501 98.957 13.2319 99.6336 13.9066C99.7464 13.4568 99.8027 12.9508 99.9719 12.4447C100.254 11.3765 100.874 10.8143 101.776 10.8143C103.693 10.7018 104.144 11.7138 104.144 13.1194C104.201 19.304 104.144 25.5448 104.144 31.7294C104.144 32.123 104.031 32.4603 103.975 32.8539C103.806 33.5286 103.411 34.0908 102.678 34.1471C101.832 34.2595 100.93 34.3157 100.423 33.4724C100.084 32.8539 99.9155 32.123 99.6336 31.3921C99.6336 31.3359 99.5772 31.1672 99.5772 31.111ZM85.5372 22.5088C85.5936 23.071 85.6499 23.6895 85.7063 24.2517C86.5521 29.0307 92.0779 31.4483 96.1941 28.862C98.8442 27.1753 100.084 23.7457 99.2389 20.4285C98.2239 16.5491 94.4461 14.3001 90.6119 15.3684C87.7926 16.1555 85.4808 19.0791 85.5372 22.5088Z" fill="white"/>
<path d="M136.848 23.065C136.961 23.6272 137.074 24.077 137.186 24.5268C137.919 27.4504 140.118 29.5869 143.445 29.868C145.926 30.0367 148.012 29.4182 149.817 27.7878C151.114 26.6633 152.974 27.0006 153.538 28.4624C153.933 29.4182 153.651 30.2616 152.974 30.9925C151.677 32.5105 149.986 33.2977 148.069 33.8037C144.178 34.7595 140.4 34.4784 137.074 32.0607C134.141 29.9243 132.506 27.0568 132.224 23.4585C131.942 19.9727 132.901 16.9366 135.213 14.3503C137.186 12.1576 139.611 10.9207 142.543 10.5271C146.208 10.0773 149.478 11.0331 152.185 13.507C154.102 15.2499 155.286 17.3864 155.286 20.0851C155.286 21.6594 154.328 22.7276 152.805 22.9525C152.185 23.065 151.621 23.065 151.001 23.065C146.603 23.065 142.148 23.065 137.75 23.065C137.468 23.065 137.243 23.065 136.848 23.065ZM150.606 19.5229C150.662 18.4546 149.817 17.049 148.802 16.2619C147.054 14.9688 145.08 14.5752 142.938 14.8563C140.682 15.1937 138.934 16.2057 137.694 18.1173C137.468 18.5109 137.299 18.9607 137.074 19.5229C141.697 19.5229 146.152 19.5229 150.606 19.5229Z" fill="white"/>
<path d="M107.584 22.4313C107.471 16.8651 111.531 11.6363 117.451 10.6243C121.004 10.0059 124.33 10.793 127.262 12.9295C127.883 13.3793 128.277 14.054 128.447 14.8411C128.728 16.2467 127.262 17.6523 125.853 17.3149C125.233 17.1462 124.669 16.8651 124.161 16.5278C119.538 13.323 113.392 15.6844 112.433 21.1943C111.644 25.7485 114.801 29.2343 118.635 29.7966C121.116 30.1339 123.203 29.4592 125.063 27.885C125.796 27.2665 126.586 26.8729 127.544 27.2103C129.236 27.7725 129.574 29.7966 128.221 31.2021C126.642 32.8889 124.612 33.7884 122.413 34.2382C118.466 35.0254 114.858 34.2944 111.756 31.6519C109.557 29.7966 108.204 27.4352 107.753 24.5678C107.64 23.8369 107.64 23.1622 107.584 22.4313Z" fill="white"/>
<path d="M68.0011 27.1972C68.5085 25.9603 68.9032 24.9482 69.2979 23.88C70.8203 20.0006 72.3428 16.1211 73.9216 12.2417C74.2599 11.3421 74.8237 10.555 75.8951 10.4426C77.643 10.2177 78.8271 11.6795 78.2633 13.3662C77.6994 14.9404 77.0228 16.4585 76.3461 17.9765C74.3726 22.6431 72.3991 27.2534 70.4256 31.92C69.6926 33.7191 68.1138 33.8878 66.9297 33.4942C66.0839 33.2131 65.6892 32.5384 65.3509 31.7513C63.7721 28.0405 62.1933 24.2736 60.6145 20.5628C59.656 18.3139 58.6974 16.0649 57.7389 13.816C57.3442 12.9164 57.3442 12.073 57.9644 11.2859C59.0921 9.88034 61.0656 10.2739 61.855 12.073C62.5316 13.6473 63.1519 15.2216 63.7721 16.7958C65.069 20.0006 66.3095 23.2615 67.6064 26.4663C67.7191 26.6912 67.8319 26.8598 68.0011 27.1972Z" fill="white"/>
<path d="M163.631 13.6709C164.251 12.9962 164.759 12.3215 165.379 11.8155C167.917 9.62279 171.976 10.2412 174.175 12.0966C174.965 12.7713 175.359 13.6709 175.134 14.7391C174.739 16.482 172.709 17.0443 171.3 15.8074C169.664 14.3455 166.338 14.5704 164.928 16.2571C164.082 17.2692 163.688 18.4499 163.688 19.743C163.688 23.4538 163.688 27.1083 163.688 30.8191C163.688 31.2688 163.631 31.7749 163.575 32.2246C163.406 33.4616 162.673 34.0238 161.319 34.0238C160.135 34.0238 159.459 33.3491 159.346 32.1122C159.29 31.3813 159.233 30.7066 159.233 29.9757C159.233 24.5782 159.233 19.1808 159.233 13.7833C159.233 13.446 159.29 13.1086 159.346 12.7713C159.571 11.6468 160.079 11.1408 160.981 11.0846C162.391 11.0283 163.011 11.3657 163.406 12.6026C163.462 12.8837 163.518 13.2211 163.631 13.6709Z" fill="white"/>
<path d="M33.4933 13.7307C33.6624 13.5058 33.7752 13.3933 33.888 13.2247C35.354 11.0882 37.3839 10.1886 39.9776 10.4697C41.3873 10.6384 42.6841 11.032 43.8118 11.9315C44.6576 12.6062 45.1651 13.4496 44.9959 14.5178C44.6576 16.3732 42.7405 17.1041 41.2181 15.8672C39.9776 14.7989 38.5116 14.6303 37.0456 14.9114C34.9593 15.3612 33.5496 17.2166 33.5496 19.3531C33.5496 23.0638 33.5496 26.7183 33.5496 30.4291C33.5496 31.16 33.4369 31.8347 33.2677 32.5656C33.0422 33.5776 32.2528 34.0274 31.1251 34.0274C30.0537 33.9712 29.3771 33.4652 29.2079 32.3969C29.1516 32.0034 29.0952 31.6098 29.0952 31.2162C29.0952 25.2565 29.0952 19.2968 29.0952 13.3371C29.0952 12.8311 29.2643 12.2689 29.4899 11.8191C30.0537 10.6946 32.5347 10.7508 32.9858 12.1002C33.0986 12.6062 33.2677 13.1685 33.4933 13.7307Z" fill="white"/>
<path d="M53.3973 22.1169C53.3973 25.2092 53.3973 28.3015 53.3973 31.3376C53.3973 32.181 53.1718 32.9681 52.3824 33.3617C51.4802 33.8115 50.5781 33.8115 49.6759 33.2492C48.9993 32.8557 48.8301 32.1247 48.8301 31.3938C48.8301 25.153 48.8301 18.9684 48.8301 12.7276C48.8301 11.1533 49.6759 10.3662 51.1983 10.4224C52.6079 10.4224 53.4537 11.322 53.4537 12.7838C53.3973 15.9323 53.3973 19.0246 53.3973 22.1169Z" fill="white"/>
</g>
<defs>
<clipPath id="clip0_1139_1337">
<rect width="200" height="45" fill="white"/>
</clipPath>
</defs>
</svg>
