<svg class="main-svg" xmlns="http://www.w3.org/2000/svg" xmlns:xlink="http://www.w3.org/1999/xlink" width="700" height="500" style="" viewBox="0 0 700 500"><rect x="0" y="0" width="700" height="500" style="fill: rgb(0, 0, 0); fill-opacity: 0;"/><defs id="defs-a8f338"><g class="clips"/><g class="gradients"/><g class="patterns"/></defs><g class="bglayer"/><g class="layer-below"><g class="imagelayer"/><g class="shapelayer"/></g><g class="cartesianlayer"/><g class="polarlayer"/><g class="smithlayer"/><g class="ternarylayer"/><g class="geolayer"/><g class="funnelarealayer"/><g class="pielayer"/><g class="iciclelayer"/><g class="treemaplayer"/><g class="sunburstlayer"/><g class="glimages"/><g class="sankey" transform="translate(80,100)matrix(1 0 0 1 0 0)" style="box-sizing: content-box; position: absolute; left: 0px; shape-rendering: geometricprecision; pointer-events: none;"><g class="sankey-links" style="fill: none;"><path class="sankey-link" d="M20,23.832451115668277C96.66666666666667,23.832451115668277 96.66666666666667,4.263256414560601e-14 173.33333333333334,4.263256414560601e-14L173.33333333333334,70.2350009517712C96.66666666666667,70.2350009517712 96.66666666666667,94.06745206743943 20,94.06745206743943Z" style="stroke: rgb(68, 68, 68); stroke-opacity: 1; fill: rgb(253, 185, 52); fill-opacity: 0.5; stroke-width: 0; opacity: 1;"/><path class="sankey-link" d="M193.33333333333334,4.263256414560601e-14C270,4.263256414560601e-14 270,23.83251745035662 346.6666666666667,23.83251745035662L346.6666666666667,94.06751840212777C270,94.06751840212777 270,70.2350009517712 193.33333333333334,70.2350009517712Z" style="stroke: rgb(68, 68, 68); stroke-opacity: 1; fill: rgb(253, 185, 52); fill-opacity: 0.5; stroke-width: 0; opacity: 1;"/><path class="sankey-link" d="M366.6666666666667,23.832517450356622C443.33333333333337,23.832517450356622 443.33333333333337,146.31967229210363 520,146.31967229210363L520,146.32391199999643C443.33333333333337,146.32391199999643 443.33333333333337,23.8367571582494 366.6666666666667,23.8367571582494Z" style="stroke: rgb(253, 185, 52); stroke-opacity: 0; fill: rgb(253, 185, 52); fill-opacity: 0; stroke-width: 1; opacity: 1;"/><path class="sankey-link" d="M20,94.06745206743943C96.66666666666667,94.06745206743943 96.66666666666667,85.2350009517711 173.33333333333334,85.2350009517711L173.33333333333334,145.3540588713724C96.66666666666667,145.3540588713724 96.66666666666667,154.18650998704072 20,154.18650998704072Z" style="stroke: rgb(68, 68, 68); stroke-opacity: 1; fill: rgb(253, 185, 52); fill-opacity: 0.5; stroke-width: 0; opacity: 1;"/><path class="sankey-link" d="M193.33333333333334,85.2350009517711C270,85.2350009517711 270,94.06751840212777 346.6666666666667,94.06751840212777L346.6666666666667,154.18657632172906C270,154.18657632172906 270,145.3540588713724 193.33333333333334,145.3540588713724Z" style="stroke: rgb(68, 68, 68); stroke-opacity: 1; fill: rgb(253, 185, 52); fill-opacity: 0.5; stroke-width: 0; opacity: 1;"/><path class="sankey-link" d="M366.6666666666667,23.8367571582494C443.33333333333337,23.8367571582494 443.33333333333337,146.3239119999964 520,146.3239119999964L520,146.3281517078892C443.33333333333337,146.3281517078892 443.33333333333337,23.84099686614218 366.6666666666667,23.84099686614218Z" style="stroke: rgb(253, 185, 52); stroke-opacity: 0; fill: rgb(253, 185, 52); fill-opacity: 0; stroke-width: 1; opacity: 1;"/><path class="sankey-link" d="M20,154.18650998704072C96.66666666666667,154.18650998704072 96.66666666666667,160.3540588713724 173.33333333333334,160.3540588713724L173.33333333333334,209.530430719712C96.66666666666667,209.530430719712 96.66666666666667,203.36288183538034 20,203.36288183538034Z" style="stroke: rgb(68, 68, 68); stroke-opacity: 1; fill: rgb(253, 185, 52); fill-opacity: 0.5; stroke-width: 0; opacity: 1;"/><path class="sankey-link" d="M193.33333333333334,160.3540588713724C270,160.3540588713724 270,154.18657632172906 346.6666666666667,154.18657632172906L346.6666666666667,203.36294817006868C270,203.36294817006868 270,209.530430719712 193.33333333333334,209.530430719712Z" style="stroke: rgb(68, 68, 68); stroke-opacity: 1; fill: rgb(253, 185, 52); fill-opacity: 0.5; stroke-width: 0; opacity: 1;"/><path class="sankey-link" d="M366.6666666666667,23.84099686614218C443.33333333333337,23.84099686614218 443.33333333333337,146.32815170788916 520,146.32815170788916L520,146.33239141578196C443.33333333333337,146.33239141578196 443.33333333333337,23.84523657403496 366.6666666666667,23.84523657403496Z" style="stroke: rgb(253, 185, 52); stroke-opacity: 0; fill: rgb(253, 185, 52); fill-opacity: 0; stroke-width: 1; opacity: 1;"/><path class="sankey-link" d="M20,203.36288183538034C96.66666666666667,203.36288183538034 96.66666666666667,224.53043071971211 173.33333333333334,224.53043071971211L173.33333333333334,258.9568588090748C96.66666666666667,258.9568588090748 96.66666666666667,237.789309924743 20,237.789309924743Z" style="stroke: rgb(68, 68, 68); stroke-opacity: 1; fill: rgb(253, 185, 52); fill-opacity: 0.5; stroke-width: 0; opacity: 1;"/><path class="sankey-link" d="M193.33333333333334,224.53043071971211C270,224.53043071971211 270,203.36294817006865 346.6666666666667,203.36294817006865L346.6666666666667,237.78937625943132C270,237.78937625943132 270,258.9568588090748 193.33333333333334,258.9568588090748Z" style="stroke: rgb(68, 68, 68); stroke-opacity: 1; fill: rgb(253, 185, 52); fill-opacity: 0.5; stroke-width: 0; opacity: 1;"/><path class="sankey-link" d="M366.6666666666667,23.84523657403496C443.33333333333337,23.84523657403496 443.33333333333337,146.33239141578193 520,146.33239141578193L520,146.33663112367472C443.33333333333337,146.33663112367472 443.33333333333337,23.84947628192774 366.6666666666667,23.84947628192774Z" style="stroke: rgb(253, 185, 52); stroke-opacity: 0; fill: rgb(253, 185, 52); fill-opacity: 0; stroke-width: 1; opacity: 1;"/><path class="sankey-link" d="M20,237.789309924743C96.66666666666667,237.789309924743 96.66666666666667,273.9568588090748 173.33333333333334,273.9568588090748L173.33333333333334,301.65063076470494C96.66666666666667,301.65063076470494 96.66666666666667,265.48308188037316 20,265.48308188037316Z" style="stroke: rgb(68, 68, 68); stroke-opacity: 1; fill: rgb(253, 185, 52); fill-opacity: 0.5; stroke-width: 0; opacity: 1;"/><path class="sankey-link" d="M193.33333333333334,273.9568588090748C270,273.9568588090748 270,237.78937625943132 346.6666666666667,237.78937625943132L346.6666666666667,265.4831482150615C270,265.4831482150615 270,301.65063076470494 193.33333333333334,301.65063076470494Z" style="stroke: rgb(68, 68, 68); stroke-opacity: 1; fill: rgb(253, 185, 52); fill-opacity: 0.5; stroke-width: 0; opacity: 1;"/><path class="sankey-link" d="M366.6666666666667,23.84947628192774C443.33333333333337,23.84947628192774 443.33333333333337,146.3366311236747 520,146.3366311236747L520,146.34087083156749C443.33333333333337,146.34087083156749 443.33333333333337,23.853715989820518 366.6666666666667,23.853715989820518Z" style="stroke: rgb(253, 185, 52); stroke-opacity: 0; fill: rgb(253, 185, 52); fill-opacity: 0; stroke-width: 1; opacity: 1;"/><path class="sankey-link" d="M20,265.48308188037316C96.66666666666667,265.48308188037316 96.66666666666667,316.65063076470494 173.33333333333334,316.65063076470494L173.33333333333334,320.0000000000001C96.66666666666667,320.0000000000001 96.66666666666667,268.83245111566833 20,268.83245111566833Z" style="stroke: rgb(68, 68, 68); stroke-opacity: 1; fill: rgb(253, 185, 52); fill-opacity: 0.5; stroke-width: 0; opacity: 1;"/><path class="sankey-link" d="M193.33333333333334,316.65063076470494C270,316.65063076470494 270,265.4831482150615 346.6666666666667,265.4831482150615L346.6666666666667,268.83251745035665C270,268.83251745035665 270,320.0000000000001 193.33333333333334,320.0000000000001Z" style="stroke: rgb(68, 68, 68); stroke-opacity: 1; fill: rgb(253, 185, 52); fill-opacity: 0.5; stroke-width: 0; opacity: 1;"/><path class="sankey-link" d="M366.6666666666667,23.853715989820518C443.33333333333337,23.853715989820518 443.33333333333337,146.34087083156746 520,146.34087083156746L520,146.34511053946025C443.33333333333337,146.34511053946025 443.33333333333337,23.857955697713297 366.6666666666667,23.857955697713297Z" style="stroke: rgb(253, 185, 52); stroke-opacity: 0; fill: rgb(253, 185, 52); fill-opacity: 0; stroke-width: 1; opacity: 1;"/></g><g class="sankey-node-set" style="cursor: move;"><g class="sankey-node" transform="translate(0.000,23.832)" style="opacity: 1;"><rect class="node-rect" width="20" height="245.00000000000017" style="stroke-width: 0; stroke: rgb(68, 68, 68); stroke-opacity: 1; fill: rgb(253, 185, 52); fill-opacity: 1;"/><text class="node-label" data-notex="1" x="0" y="0" text-anchor="start" transform="translate(23,126.70000000000009)" style="cursor: default; font-family: 'Open Sans', verdana, arial, sans-serif; font-size: 12px; fill: rgb(65, 64, 66); fill-opacity: 1; white-space: pre; text-shadow: rgba(0, 0, 0, 0) 1px 1px 1px, rgba(0, 0, 0, 0) -1px -1px 1px, rgba(0, 0, 0, 0) 1px -1px 1px, rgba(0, 0, 0, 0) -1px 1px 1px;">AB InBev (57.79bn)</text></g><g class="sankey-node" transform="translate(173.333,0.000)" style="opacity: 1;"><rect class="node-rect" width="20" height="70.23500095177106" style="stroke-width: 0; stroke: rgb(68, 68, 68); stroke-opacity: 1; fill: rgb(253, 185, 52); fill-opacity: 1;"/><text class="node-label" data-notex="1" x="0" y="0" text-anchor="start" transform="translate(23,39.317500475885524)" style="cursor: default; font-family: 'Open Sans', verdana, arial, sans-serif; font-size: 12px; fill: rgb(65, 64, 66); fill-opacity: 1; white-space: pre; text-shadow: rgba(0, 0, 0, 0) 1px 1px 1px, rgba(0, 0, 0, 0) -1px -1px 1px, rgba(0, 0, 0, 0) 1px -1px 1px, rgba(0, 0, 0, 0) -1px 1px 1px;">North America (16.57bn)</text></g><g class="sankey-node" transform="translate(173.333,85.235)" style="opacity: 1;"><rect class="node-rect" width="20" height="60.11905791960129" style="stroke-width: 0; stroke: rgb(68, 68, 68); stroke-opacity: 1; fill: rgb(253, 185, 52); fill-opacity: 1;"/><text class="node-label" data-notex="1" x="0" y="0" text-anchor="start" transform="translate(23,34.25952895980065)" style="cursor: default; font-family: 'Open Sans', verdana, arial, sans-serif; font-size: 12px; fill: rgb(65, 64, 66); fill-opacity: 1; white-space: pre; text-shadow: rgba(0, 0, 0, 0) 1px 1px 1px, rgba(0, 0, 0, 0) -1px -1px 1px, rgba(0, 0, 0, 0) 1px -1px 1px, rgba(0, 0, 0, 0) -1px 1px 1px;">Middle Americas (14.18bn)</text></g><g class="sankey-node" transform="translate(173.333,160.354)" style="opacity: 1;"><rect class="node-rect" width="20" height="49.17637184833973" style="stroke-width: 0; stroke: rgb(68, 68, 68); stroke-opacity: 1; fill: rgb(253, 185, 52); fill-opacity: 1;"/><text class="node-label" data-notex="1" x="0" y="0" text-anchor="start" transform="translate(23,28.788185924169863)" style="cursor: default; font-family: 'Open Sans', verdana, arial, sans-serif; font-size: 12px; fill: rgb(65, 64, 66); fill-opacity: 1; white-space: pre; text-shadow: rgba(0, 0, 0, 0) 1px 1px 1px, rgba(0, 0, 0, 0) -1px -1px 1px, rgba(0, 0, 0, 0) 1px -1px 1px, rgba(0, 0, 0, 0) -1px 1px 1px;">South America (11.6bn)</text></g><g class="sankey-node" transform="translate(173.333,224.530)" style="opacity: 1;"><rect class="node-rect" width="20" height="34.42642808936267" style="stroke-width: 0; stroke: rgb(68, 68, 68); stroke-opacity: 1; fill: rgb(253, 185, 52); fill-opacity: 1;"/><text class="node-label" data-notex="1" x="0" y="0" text-anchor="start" transform="translate(23,21.413214044681336)" style="cursor: default; font-family: 'Open Sans', verdana, arial, sans-serif; font-size: 12px; fill: rgb(65, 64, 66); fill-opacity: 1; white-space: pre; text-shadow: rgba(0, 0, 0, 0) 1px 1px 1px, rgba(0, 0, 0, 0) -1px -1px 1px, rgba(0, 0, 0, 0) 1px -1px 1px, rgba(0, 0, 0, 0) -1px 1px 1px;">EMEA (8.12bn)</text></g><g class="sankey-node" transform="translate(173.333,273.957)" style="opacity: 1;"><rect class="node-rect" width="20" height="27.693771955630154" style="stroke-width: 0; stroke: rgb(68, 68, 68); stroke-opacity: 1; fill: rgb(253, 185, 52); fill-opacity: 1;"/><text class="node-label" data-notex="1" x="0" y="0" text-anchor="start" transform="translate(23,18.046885977815077)" style="cursor: default; font-family: 'Open Sans', verdana, arial, sans-serif; font-size: 12px; fill: rgb(65, 64, 66); fill-opacity: 1; white-space: pre; text-shadow: rgba(0, 0, 0, 0) 1px 1px 1px, rgba(0, 0, 0, 0) -1px -1px 1px, rgba(0, 0, 0, 0) 1px -1px 1px, rgba(0, 0, 0, 0) -1px 1px 1px;">Asia Pacific (6.53bn)</text></g><g class="sankey-node" transform="translate(173.333,316.651)" style="opacity: 1;"><rect class="node-rect" width="20" height="3.3493692352950575" style="stroke-width: 0; stroke: rgb(68, 68, 68); stroke-opacity: 1; fill: rgb(253, 185, 52); fill-opacity: 1;"/><text class="node-label" data-notex="1" x="0" y="0" text-anchor="start" transform="translate(23,5.874684617647528)" style="cursor: default; font-family: 'Open Sans', verdana, arial, sans-serif; font-size: 12px; fill: rgb(65, 64, 66); fill-opacity: 1; white-space: pre; text-shadow: rgba(0, 0, 0, 0) 1px 1px 1px, rgba(0, 0, 0, 0) -1px -1px 1px, rgba(0, 0, 0, 0) 1px -1px 1px, rgba(0, 0, 0, 0) -1px 1px 1px;">Global Export &amp; Holding Co.s (0.79bn)</text></g><g class="sankey-node" transform="translate(346.667,23.833)" style="opacity: 1;"><rect class="node-rect" width="20" height="245.00000000000003" style="stroke-width: 0; stroke: rgb(68, 68, 68); stroke-opacity: 1; fill: rgb(253, 185, 52); fill-opacity: 1;"/><text class="node-label" data-notex="1" x="0" y="0" text-anchor="start" transform="translate(23,126.70000000000002)" style="cursor: default; font-family: 'Open Sans', verdana, arial, sans-serif; font-size: 12px; fill: rgb(65, 64, 66); fill-opacity: 1; white-space: pre; text-shadow: rgba(0, 0, 0, 0) 1px 1px 1px, rgba(0, 0, 0, 0) -1px -1px 1px, rgba(0, 0, 0, 0) 1px -1px 1px, rgba(0, 0, 0, 0) -1px 1px 1px;">Alcoholic Drinks (16.57bn)</text></g><g class="sankey-node" transform="translate(520.000,146.320)" style="opacity: 1;"><rect class="node-rect" width="20" height="0.5" style="stroke-width: 0; stroke: rgb(68, 68, 68); stroke-opacity: 1; fill: rgb(0, 0, 0); fill-opacity: 0;"/><text class="node-label" data-notex="1" x="0" y="0" text-anchor="end" transform="translate(-3,4.449999999999999)" style="cursor: default; font-family: 'Open Sans', verdana, arial, sans-serif; font-size: 12px; fill: rgb(65, 64, 66); fill-opacity: 1; white-space: pre; text-shadow: rgba(0, 0, 0, 0) 1px 1px 1px, rgba(0, 0, 0, 0) -1px -1px 1px, rgba(0, 0, 0, 0) 1px -1px 1px, rgba(0, 0, 0, 0) -1px 1px 1px;"></text></g></g></g><defs id="topdefs-a8f338"><g class="clips"/></defs><g class="layer-above"><g class="imagelayer"/><g class="shapelayer"/></g><g class="infolayer"><g class="g-gtitle"/><g class="first-render"/></g></svg>