<svg class="main-svg" xmlns="http://www.w3.org/2000/svg" xmlns:xlink="http://www.w3.org/1999/xlink" width="700" height="500" style="" viewBox="0 0 700 500"><rect x="0" y="0" width="700" height="500" style="fill: rgb(0, 0, 0); fill-opacity: 0;"/><defs id="defs-5f5d46"><g class="clips"/><g class="gradients"/><g class="patterns"/></defs><g class="bglayer"/><g class="layer-below"><g class="imagelayer"/><g class="shapelayer"/></g><g class="cartesianlayer"/><g class="polarlayer"/><g class="smithlayer"/><g class="ternarylayer"/><g class="geolayer"/><g class="funnelarealayer"/><g class="pielayer"/><g class="iciclelayer"/><g class="treemaplayer"/><g class="sunburstlayer"/><g class="glimages"/><g class="sankey" transform="translate(80,100)matrix(1 0 0 1 0 0)" style="box-sizing: content-box; position: absolute; left: 0px; shape-rendering: geometricprecision; pointer-events: none;"><g class="sankey-links" style="fill: none;"><path class="sankey-link" d="M20,11.161028575497042C96.66666666666667,11.161028575497042 96.66666666666667,8.526512829121202e-14 173.33333333333334,8.526512829121202e-14L173.33333333333334,158.57379375591304C96.66666666666667,158.57379375591304 96.66666666666667,169.73482233141 20,169.73482233141Z" style="stroke: rgb(68, 68, 68); stroke-opacity: 1; fill: rgb(253, 185, 52); fill-opacity: 0.5; stroke-width: 0; opacity: 1;"/><path class="sankey-link" d="M193.33333333333334,8.526512829121202e-14C270,8.526512829121202e-14 270,11.161059671400224 346.6666666666667,11.161059671400224L346.6666666666667,169.73485342731317C270,169.73485342731317 270,158.57379375591304 193.33333333333334,158.57379375591304Z" style="stroke: rgb(68, 68, 68); stroke-opacity: 1; fill: rgb(253, 185, 52); fill-opacity: 0.5; stroke-width: 0; opacity: 1;"/><path class="sankey-link" d="M366.6666666666667,11.16105967140022C443.33333333333337,11.16105967140022 443.33333333333337,125.9706032388158 520,125.9706032388158L520,126.02500248195678C443.33333333333337,126.02500248195678 443.33333333333337,11.215458914541184 366.6666666666667,11.215458914541184Z" style="stroke: rgb(253, 185, 52); stroke-opacity: 0; fill: rgb(253, 185, 52); fill-opacity: 0; stroke-width: 1; opacity: 1;"/><path class="sankey-link" d="M20,169.73482233141002C96.66666666666667,169.73482233141002 96.66666666666667,173.5737937559132 173.33333333333334,173.5737937559132L173.33333333333334,201.26300851466436C96.66666666666667,201.26300851466436 96.66666666666667,197.4240370901612 20,197.4240370901612Z" style="stroke: rgb(68, 68, 68); stroke-opacity: 1; fill: rgb(253, 185, 52); fill-opacity: 0.5; stroke-width: 0; opacity: 1;"/><path class="sankey-link" d="M193.33333333333334,173.5737937559132C270,173.5737937559132 270,169.73485342731317 346.6666666666667,169.73485342731317L346.6666666666667,197.42406818606435C270,197.42406818606435 270,201.26300851466436 193.33333333333334,201.26300851466436Z" style="stroke: rgb(68, 68, 68); stroke-opacity: 1; fill: rgb(253, 185, 52); fill-opacity: 0.5; stroke-width: 0; opacity: 1;"/><path class="sankey-link" d="M366.6666666666667,11.215458914541186C443.33333333333337,11.215458914541186 443.33333333333337,126.02500248195676 520,126.02500248195676L520,126.07940172509774C443.33333333333337,126.07940172509774 443.33333333333337,11.26985815768215 366.6666666666667,11.26985815768215Z" style="stroke: rgb(253, 185, 52); stroke-opacity: 0; fill: rgb(253, 185, 52); fill-opacity: 0; stroke-width: 1; opacity: 1;"/><path class="sankey-link" d="M20,197.4240370901612C96.66666666666667,197.4240370901612 96.66666666666667,216.26300851466448 173.33333333333334,216.26300851466448L173.33333333333334,233.6707663197733C96.66666666666667,233.6707663197733 96.66666666666667,214.83179489527 20,214.83179489527Z" style="stroke: rgb(68, 68, 68); stroke-opacity: 1; fill: rgb(253, 185, 52); fill-opacity: 0.5; stroke-width: 0; opacity: 1;"/><path class="sankey-link" d="M193.33333333333334,216.26300851466448C270,216.26300851466448 270,197.42406818606435 346.6666666666667,197.42406818606435L346.6666666666667,214.83182599117316C270,214.83182599117316 270,233.6707663197733 193.33333333333334,233.6707663197733Z" style="stroke: rgb(68, 68, 68); stroke-opacity: 1; fill: rgb(253, 185, 52); fill-opacity: 0.5; stroke-width: 0; opacity: 1;"/><path class="sankey-link" d="M366.6666666666667,11.269858157682151C443.33333333333337,11.269858157682151 443.33333333333337,126.07940172509772 520,126.07940172509772L520,126.1338009682387C443.33333333333337,126.1338009682387 443.33333333333337,11.324257400823114 366.6666666666667,11.324257400823114Z" style="stroke: rgb(253, 185, 52); stroke-opacity: 0; fill: rgb(253, 185, 52); fill-opacity: 0; stroke-width: 1; opacity: 1;"/><path class="sankey-link" d="M20,214.83179489526998C96.66666666666667,214.83179489526998 96.66666666666667,248.670766319773 173.33333333333334,248.670766319773L173.33333333333334,259.8770104068118C96.66666666666667,259.8770104068118 96.66666666666667,226.03803898230876 20,226.03803898230876Z" style="stroke: rgb(68, 68, 68); stroke-opacity: 1; fill: rgb(253, 185, 52); fill-opacity: 0.5; stroke-width: 0; opacity: 1;"/><path class="sankey-link" d="M193.33333333333334,248.670766319773C270,248.670766319773 270,214.83182599117316 346.6666666666667,214.83182599117316L346.6666666666667,226.03807007821194C270,226.03807007821194 270,259.8770104068118 193.33333333333334,259.8770104068118Z" style="stroke: rgb(68, 68, 68); stroke-opacity: 1; fill: rgb(253, 185, 52); fill-opacity: 0.5; stroke-width: 0; opacity: 1;"/><path class="sankey-link" d="M366.6666666666667,11.324257400823116C443.33333333333337,11.324257400823116 443.33333333333337,126.13380096823869 520,126.13380096823869L520,126.18820021137967C443.33333333333337,126.18820021137967 443.33333333333337,11.37865664396408 366.6666666666667,11.37865664396408Z" style="stroke: rgb(253, 185, 52); stroke-opacity: 0; fill: rgb(253, 185, 52); fill-opacity: 0; stroke-width: 1; opacity: 1;"/><path class="sankey-link" d="M20,226.03803898230876C96.66666666666667,226.03803898230876 96.66666666666667,274.8770104068118 173.33333333333334,274.8770104068118L173.33333333333334,280.2625354777673C96.66666666666667,280.2625354777673 96.66666666666667,231.42356405326427 20,231.42356405326427Z" style="stroke: rgb(68, 68, 68); stroke-opacity: 1; fill: rgb(253, 185, 52); fill-opacity: 0.5; stroke-width: 0; opacity: 1;"/><path class="sankey-link" d="M193.33333333333334,274.8770104068118C270,274.8770104068118 270,226.03807007821194 346.6666666666667,226.03807007821194L346.6666666666667,231.42359514916745C270,231.42359514916745 270,280.2625354777673 193.33333333333334,280.2625354777673Z" style="stroke: rgb(68, 68, 68); stroke-opacity: 1; fill: rgb(253, 185, 52); fill-opacity: 0.5; stroke-width: 0; opacity: 1;"/><path class="sankey-link" d="M366.6666666666667,11.378656643964081C443.33333333333337,11.378656643964081 443.33333333333337,126.18820021137965 520,126.18820021137965L520,126.24259945452063C443.33333333333337,126.24259945452063 443.33333333333337,11.433055887105045 366.6666666666667,11.433055887105045Z" style="stroke: rgb(253, 185, 52); stroke-opacity: 0; fill: rgb(253, 185, 52); fill-opacity: 0; stroke-width: 1; opacity: 1;"/><path class="sankey-link" d="M20,231.4235640532643C96.66666666666667,231.4235640532643 96.66666666666667,295.2625354777673 173.33333333333334,295.2625354777673L173.33333333333334,300.2128666035951C96.66666666666667,300.2128666035951 96.66666666666667,236.3738951790921 20,236.3738951790921Z" style="stroke: rgb(68, 68, 68); stroke-opacity: 1; fill: rgb(253, 185, 52); fill-opacity: 0.5; stroke-width: 0; opacity: 1;"/><path class="sankey-link" d="M193.33333333333334,295.2625354777673C270,295.2625354777673 270,231.42359514916748 346.6666666666667,231.42359514916748L346.6666666666667,236.37392627499528C270,236.37392627499528 270,300.2128666035951 193.33333333333334,300.2128666035951Z" style="stroke: rgb(68, 68, 68); stroke-opacity: 1; fill: rgb(253, 185, 52); fill-opacity: 0.5; stroke-width: 0; opacity: 1;"/><path class="sankey-link" d="M366.6666666666667,11.433055887105047C443.33333333333337,11.433055887105047 443.33333333333337,126.24259945452062 520,126.24259945452062L520,126.29699869766159C443.33333333333337,126.29699869766159 443.33333333333337,11.48745513024601 366.6666666666667,11.48745513024601Z" style="stroke: rgb(253, 185, 52); stroke-opacity: 0; fill: rgb(253, 185, 52); fill-opacity: 0; stroke-width: 1; opacity: 1;"/><path class="sankey-link" d="M20,236.3738951790921C96.66666666666667,236.3738951790921 96.66666666666667,315.2128666035951 173.33333333333334,315.2128666035951L173.33333333333334,320C96.66666666666667,320 96.66666666666667,241.161028575497 20,241.161028575497Z" style="stroke: rgb(68, 68, 68); stroke-opacity: 1; fill: rgb(253, 185, 52); fill-opacity: 0.5; stroke-width: 0; opacity: 1;"/><path class="sankey-link" d="M193.33333333333334,315.2128666035951C270,315.2128666035951 270,236.37392627499528 346.6666666666667,236.37392627499528L346.6666666666667,241.16105967140018C270,241.16105967140018 270,320 193.33333333333334,320Z" style="stroke: rgb(68, 68, 68); stroke-opacity: 1; fill: rgb(253, 185, 52); fill-opacity: 0.5; stroke-width: 0; opacity: 1;"/><path class="sankey-link" d="M366.6666666666667,11.487455130246012C443.33333333333337,11.487455130246012 443.33333333333337,126.29699869766158 520,126.29699869766158L520,126.35139794080256C443.33333333333337,126.35139794080256 443.33333333333337,11.541854373386975 366.6666666666667,11.541854373386975Z" style="stroke: rgb(253, 185, 52); stroke-opacity: 0; fill: rgb(253, 185, 52); fill-opacity: 0; stroke-width: 1; opacity: 1;"/></g><g class="sankey-node-set" style="cursor: move;"><g class="sankey-node" transform="translate(0.000,11.161)" style="opacity: 1;"><rect class="node-rect" width="20" height="230.00000000000006" style="stroke-width: 0; stroke: rgb(68, 68, 68); stroke-opacity: 1; fill: rgb(253, 185, 52); fill-opacity: 1;"/><text class="node-label" data-notex="1" x="0" y="0" text-anchor="start" transform="translate(23,119.20000000000003)" style="cursor: default; font-family: 'Open Sans', verdana, arial, sans-serif; font-size: 12px; fill: rgb(65, 64, 66); fill-opacity: 1; white-space: pre; text-shadow: rgba(0, 0, 0, 0) 1px 1px 1px, rgba(0, 0, 0, 0) -1px -1px 1px, rgba(0, 0, 0, 0) 1px -1px 1px, rgba(0, 0, 0, 0) -1px 1px 1px;">Brown-Foreman (4.23bn)</text></g><g class="sankey-node" transform="translate(173.333,0.000)" style="opacity: 1;"><rect class="node-rect" width="20" height="158.5737937559131" style="stroke-width: 0; stroke: rgb(68, 68, 68); stroke-opacity: 1; fill: rgb(253, 185, 52); fill-opacity: 1;"/><text class="node-label" data-notex="1" x="0" y="0" text-anchor="start" transform="translate(23,83.48689687795655)" style="cursor: default; font-family: 'Open Sans', verdana, arial, sans-serif; font-size: 12px; fill: rgb(65, 64, 66); fill-opacity: 1; white-space: pre; text-shadow: rgba(0, 0, 0, 0) 1px 1px 1px, rgba(0, 0, 0, 0) -1px -1px 1px, rgba(0, 0, 0, 0) 1px -1px 1px, rgba(0, 0, 0, 0) -1px 1px 1px;">Whiskey (2.92bn)</text></g><g class="sankey-node" transform="translate(173.333,173.574)" style="opacity: 1;"><rect class="node-rect" width="20" height="27.68921475875129" style="stroke-width: 0; stroke: rgb(68, 68, 68); stroke-opacity: 1; fill: rgb(253, 185, 52); fill-opacity: 1;"/><text class="node-label" data-notex="1" x="0" y="0" text-anchor="start" transform="translate(23,18.044607379375645)" style="cursor: default; font-family: 'Open Sans', verdana, arial, sans-serif; font-size: 12px; fill: rgb(65, 64, 66); fill-opacity: 1; white-space: pre; text-shadow: rgba(0, 0, 0, 0) 1px 1px 1px, rgba(0, 0, 0, 0) -1px -1px 1px, rgba(0, 0, 0, 0) 1px -1px 1px, rgba(0, 0, 0, 0) -1px 1px 1px;">Ready-to-drink (0.51bn)</text></g><g class="sankey-node" transform="translate(173.333,216.263)" style="opacity: 1;"><rect class="node-rect" width="20" height="17.40775780510853" style="stroke-width: 0; stroke: rgb(68, 68, 68); stroke-opacity: 1; fill: rgb(253, 185, 52); fill-opacity: 1;"/><text class="node-label" data-notex="1" x="0" y="0" text-anchor="start" transform="translate(23,12.903878902554265)" style="cursor: default; font-family: 'Open Sans', verdana, arial, sans-serif; font-size: 12px; fill: rgb(65, 64, 66); fill-opacity: 1; white-space: pre; text-shadow: rgba(0, 0, 0, 0) 1px 1px 1px, rgba(0, 0, 0, 0) -1px -1px 1px, rgba(0, 0, 0, 0) 1px -1px 1px, rgba(0, 0, 0, 0) -1px 1px 1px;">Tequila (0.32bn)</text></g><g class="sankey-node" transform="translate(173.333,248.671)" style="opacity: 1;"><rect class="node-rect" width="20" height="11.206244087038783" style="stroke-width: 0; stroke: rgb(68, 68, 68); stroke-opacity: 1; fill: rgb(253, 185, 52); fill-opacity: 1;"/><text class="node-label" data-notex="1" x="0" y="0" text-anchor="start" transform="translate(23,9.80312204351939)" style="cursor: default; font-family: 'Open Sans', verdana, arial, sans-serif; font-size: 12px; fill: rgb(65, 64, 66); fill-opacity: 1; white-space: pre; text-shadow: rgba(0, 0, 0, 0) 1px 1px 1px, rgba(0, 0, 0, 0) -1px -1px 1px, rgba(0, 0, 0, 0) 1px -1px 1px, rgba(0, 0, 0, 0) -1px 1px 1px;">Wine (0.21bn)</text></g><g class="sankey-node" transform="translate(173.333,274.877)" style="opacity: 1;"><rect class="node-rect" width="20" height="5.385525070955509" style="stroke-width: 0; stroke: rgb(68, 68, 68); stroke-opacity: 1; fill: rgb(253, 185, 52); fill-opacity: 1;"/><text class="node-label" data-notex="1" x="0" y="0" text-anchor="start" transform="translate(23,6.892762535477754)" style="cursor: default; font-family: 'Open Sans', verdana, arial, sans-serif; font-size: 12px; fill: rgb(65, 64, 66); fill-opacity: 1; white-space: pre; text-shadow: rgba(0, 0, 0, 0) 1px 1px 1px, rgba(0, 0, 0, 0) -1px -1px 1px, rgba(0, 0, 0, 0) 1px -1px 1px, rgba(0, 0, 0, 0) -1px 1px 1px;">Vodka (0.1bn)</text></g><g class="sankey-node" transform="translate(173.333,295.263)" style="opacity: 1;"><rect class="node-rect" width="20" height="4.950331125827802" style="stroke-width: 0; stroke: rgb(68, 68, 68); stroke-opacity: 1; fill: rgb(253, 185, 52); fill-opacity: 1;"/><text class="node-label" data-notex="1" x="0" y="0" text-anchor="start" transform="translate(23,6.6751655629139)" style="cursor: default; font-family: 'Open Sans', verdana, arial, sans-serif; font-size: 12px; fill: rgb(65, 64, 66); fill-opacity: 1; white-space: pre; text-shadow: rgba(0, 0, 0, 0) 1px 1px 1px, rgba(0, 0, 0, 0) -1px -1px 1px, rgba(0, 0, 0, 0) 1px -1px 1px, rgba(0, 0, 0, 0) -1px 1px 1px;">Rest of Portfolio (0.09bn)</text></g><g class="sankey-node" transform="translate(173.333,315.213)" style="opacity: 1;"><rect class="node-rect" width="20" height="4.787133396404897" style="stroke-width: 0; stroke: rgb(68, 68, 68); stroke-opacity: 1; fill: rgb(253, 185, 52); fill-opacity: 1;"/><text class="node-label" data-notex="1" x="0" y="0" text-anchor="start" transform="translate(23,6.593566698202448)" style="cursor: default; font-family: 'Open Sans', verdana, arial, sans-serif; font-size: 12px; fill: rgb(65, 64, 66); fill-opacity: 1; white-space: pre; text-shadow: rgba(0, 0, 0, 0) 1px 1px 1px, rgba(0, 0, 0, 0) -1px -1px 1px, rgba(0, 0, 0, 0) 1px -1px 1px, rgba(0, 0, 0, 0) -1px 1px 1px;">Non-branded &amp; Bulk (0.09bn)</text></g><g class="sankey-node" transform="translate(346.667,11.161)" style="opacity: 1;"><rect class="node-rect" width="20" height="230.00000000000006" style="stroke-width: 0; stroke: rgb(68, 68, 68); stroke-opacity: 1; fill: rgb(253, 185, 52); fill-opacity: 1;"/><text class="node-label" data-notex="1" x="0" y="0" text-anchor="start" transform="translate(23,119.20000000000003)" style="cursor: default; font-family: 'Open Sans', verdana, arial, sans-serif; font-size: 12px; fill: rgb(65, 64, 66); fill-opacity: 1; white-space: pre; text-shadow: rgba(0, 0, 0, 0) 1px 1px 1px, rgba(0, 0, 0, 0) -1px -1px 1px, rgba(0, 0, 0, 0) 1px -1px 1px, rgba(0, 0, 0, 0) -1px 1px 1px;">Alcoholic Drinks (2.92bn)</text></g><g class="sankey-node" transform="translate(520.000,125.971)" style="opacity: 1;"><rect class="node-rect" width="20" height="0.5" style="stroke-width: 0; stroke: rgb(68, 68, 68); stroke-opacity: 1; fill: rgb(0, 0, 0); fill-opacity: 0;"/><text class="node-label" data-notex="1" x="0" y="0" text-anchor="end" transform="translate(-3,4.449999999999999)" style="cursor: default; font-family: 'Open Sans', verdana, arial, sans-serif; font-size: 12px; fill: rgb(65, 64, 66); fill-opacity: 1; white-space: pre; text-shadow: rgba(0, 0, 0, 0) 1px 1px 1px, rgba(0, 0, 0, 0) -1px -1px 1px, rgba(0, 0, 0, 0) 1px -1px 1px, rgba(0, 0, 0, 0) -1px 1px 1px;"></text></g></g></g><defs id="topdefs-5f5d46"><g class="clips"/></defs><g class="layer-above"><g class="imagelayer"/><g class="shapelayer"/></g><g class="infolayer"><g class="g-gtitle"/><g class="first-render"/></g></svg>