<svg class="main-svg" xmlns="http://www.w3.org/2000/svg" xmlns:xlink="http://www.w3.org/1999/xlink" width="700" height="500" viewBox="0 0 700 500" style=""><rect x="0" y="0" width="700" height="500" style="fill: rgb(0, 0, 0); fill-opacity: 0;"/><defs id="defs-986b26"><g class="clips"/><g class="gradients"/><g class="patterns"/></defs><g class="bglayer"/><g class="layer-below"><g class="imagelayer"/><g class="shapelayer"/></g><g class="cartesianlayer"/><g class="polarlayer"/><g class="smithlayer"/><g class="ternarylayer"/><g class="geolayer"/><g class="funnelarealayer"/><g class="pielayer"/><g class="iciclelayer"/><g class="treemaplayer"/><g class="sunburstlayer"/><g class="glimages"/><g class="sankey" transform="translate(80,100)matrix(1 0 0 1 0 0)" style="box-sizing: content-box; position: absolute; left: 0px; shape-rendering: geometricprecision; pointer-events: none;"><g class="sankey-links" style="fill: none;"><path class="sankey-link" d="M20,147.03216755908426C96.66666666666667,147.03216755908426 96.66666666666667,152.12595763857598 173.33333333333334,152.12595763857598L173.33333333333334,191.11401532221726C96.66666666666667,191.11401532221726 96.66666666666667,186.02022524272553 20,186.02022524272553Z" style="stroke: rgb(68, 68, 68); stroke-opacity: 1; fill: rgb(253, 185, 52); fill-opacity: 0.5; stroke-width: 0; opacity: 1;"/><path class="sankey-link" d="M193.33333333333334,152.12595763857598C270,152.12595763857598 270,147.032236875455 346.6666666666667,147.032236875455L346.6666666666667,186.02029455909627C270,186.02029455909627 270,191.11401532221726 193.33333333333334,191.11401532221726Z" style="stroke: rgb(68, 68, 68); stroke-opacity: 1; fill: rgb(253, 185, 52); fill-opacity: 0.5; stroke-width: 0; opacity: 1;"/><path class="sankey-link" d="M366.6666666666667,24.90627923687907C443.33333333333337,24.90627923687907 443.33333333333337,139.8874283482549 520,139.8874283482549L520,139.8927766879442C443.33333333333337,139.8927766879442 443.33333333333337,24.911627576568403 366.6666666666667,24.911627576568403Z" style="stroke: rgb(253, 185, 52); stroke-opacity: 0; fill: rgb(253, 185, 52); fill-opacity: 0; stroke-width: 1; opacity: 1;"/><path class="sankey-link" d="M20,214.23901749148624C96.66666666666667,214.23901749148624 96.66666666666667,249.33280757097793 173.33333333333334,249.33280757097793L173.33333333333334,274.7789544840018C96.66666666666667,274.7789544840018 96.66666666666667,239.68516440451012 20,239.68516440451012Z" style="stroke: rgb(68, 68, 68); stroke-opacity: 1; fill: rgb(253, 185, 52); fill-opacity: 0.5; stroke-width: 0; opacity: 1;"/><path class="sankey-link" d="M193.33333333333334,249.33280757097793C270,249.33280757097793 270,214.23908680785698 346.6666666666667,214.23908680785698L346.6666666666667,239.68523372088086C270,239.68523372088086 270,274.7789544840018 193.33333333333334,274.7789544840018Z" style="stroke: rgb(68, 68, 68); stroke-opacity: 1; fill: rgb(253, 185, 52); fill-opacity: 0.5; stroke-width: 0; opacity: 1;"/><path class="sankey-link" d="M366.6666666666667,24.9116275765684C443.33333333333337,24.9116275765684 443.33333333333337,139.89277668794423 520,139.89277668794423L520,139.89812502763354C443.33333333333337,139.89812502763354 443.33333333333337,24.916975916257734 366.6666666666667,24.916975916257734Z" style="stroke: rgb(253, 185, 52); stroke-opacity: 0; fill: rgb(253, 185, 52); fill-opacity: 0; stroke-width: 1; opacity: 1;"/><path class="sankey-link" d="M20,24.906209920508324C96.66666666666667,24.906209920508324 96.66666666666667,4.973799150320701e-14 173.33333333333334,4.973799150320701e-14L173.33333333333334,81.23073456511946C96.66666666666667,81.23073456511946 96.66666666666667,106.13694448562774 20,106.13694448562774Z" style="stroke: rgb(68, 68, 68); stroke-opacity: 1; fill: rgb(253, 185, 52); fill-opacity: 0.5; stroke-width: 0; opacity: 1;"/><path class="sankey-link" d="M193.33333333333334,4.973799150320701e-14C270,4.973799150320701e-14 270,24.906279236879065 346.6666666666667,24.906279236879065L346.6666666666667,106.13701380199848C270,106.13701380199848 270,81.23073456511946 193.33333333333334,81.23073456511946Z" style="stroke: rgb(68, 68, 68); stroke-opacity: 1; fill: rgb(253, 185, 52); fill-opacity: 0.5; stroke-width: 0; opacity: 1;"/><path class="sankey-link" d="M366.6666666666667,24.91697591625773C443.33333333333337,24.91697591625773 443.33333333333337,139.89812502763357 520,139.89812502763357L520,139.90347336732287C443.33333333333337,139.90347336732287 443.33333333333337,24.922324255947064 366.6666666666667,24.922324255947064Z" style="stroke: rgb(253, 185, 52); stroke-opacity: 0; fill: rgb(253, 185, 52); fill-opacity: 0; stroke-width: 1; opacity: 1;"/><path class="sankey-link" d="M20,186.02022524272553C96.66666666666667,186.02022524272553 96.66666666666667,206.11401532221726 173.33333333333334,206.11401532221726L173.33333333333334,234.33280757097793C96.66666666666667,234.33280757097793 96.66666666666667,214.2390174914862 20,214.2390174914862Z" style="stroke: rgb(68, 68, 68); stroke-opacity: 1; fill: rgb(253, 185, 52); fill-opacity: 0.5; stroke-width: 0; opacity: 1;"/><path class="sankey-link" d="M193.33333333333334,206.11401532221726C270,206.11401532221726 270,186.02029455909627 346.6666666666667,186.02029455909627L346.6666666666667,214.23908680785695C270,214.23908680785695 270,234.33280757097793 193.33333333333334,234.33280757097793Z" style="stroke: rgb(68, 68, 68); stroke-opacity: 1; fill: rgb(253, 185, 52); fill-opacity: 0.5; stroke-width: 0; opacity: 1;"/><path class="sankey-link" d="M366.6666666666667,24.92232425594706C443.33333333333337,24.92232425594706 443.33333333333337,139.9034733673229 520,139.9034733673229L520,139.9088217070122C443.33333333333337,139.9088217070122 443.33333333333337,24.927672595636395 366.6666666666667,24.927672595636395Z" style="stroke: rgb(253, 185, 52); stroke-opacity: 0; fill: rgb(253, 185, 52); fill-opacity: 0; stroke-width: 1; opacity: 1;"/><path class="sankey-link" d="M20,239.68516440451012C96.66666666666667,239.68516440451012 96.66666666666667,289.7789544840018 173.33333333333334,289.7789544840018L173.33333333333334,304.51284362325373C96.66666666666667,304.51284362325373 96.66666666666667,254.41905354376203 20,254.41905354376203Z" style="stroke: rgb(68, 68, 68); stroke-opacity: 1; fill: rgb(253, 185, 52); fill-opacity: 0.5; stroke-width: 0; opacity: 1;"/><path class="sankey-link" d="M193.33333333333334,289.7789544840018C270,289.7789544840018 270,239.68523372088086 346.6666666666667,239.68523372088086L346.6666666666667,254.41912286013277C270,254.41912286013277 270,304.51284362325373 193.33333333333334,304.51284362325373Z" style="stroke: rgb(68, 68, 68); stroke-opacity: 1; fill: rgb(253, 185, 52); fill-opacity: 0.5; stroke-width: 0; opacity: 1;"/><path class="sankey-link" d="M366.6666666666667,24.92767259563639C443.33333333333337,24.92767259563639 443.33333333333337,139.90882170701224 520,139.90882170701224L520,139.91417004670154C443.33333333333337,139.91417004670154 443.33333333333337,24.933020935325725 366.6666666666667,24.933020935325725Z" style="stroke: rgb(253, 185, 52); stroke-opacity: 0; fill: rgb(253, 185, 52); fill-opacity: 0; stroke-width: 1; opacity: 1;"/><path class="sankey-link" d="M20,106.13694448562775C96.66666666666667,106.13694448562775 96.66666666666667,96.23073456511943 173.33333333333334,96.23073456511943L173.33333333333334,137.12595763857595C96.66666666666667,137.12595763857595 96.66666666666667,147.03216755908426 20,147.03216755908426Z" style="stroke: rgb(68, 68, 68); stroke-opacity: 1; fill: rgb(253, 185, 52); fill-opacity: 0.5; stroke-width: 0; opacity: 1;"/><path class="sankey-link" d="M193.33333333333334,96.23073456511943C270,96.23073456511943 270,106.13701380199849 346.6666666666667,106.13701380199849L346.6666666666667,147.032236875455C270,147.032236875455 270,137.12595763857595 193.33333333333334,137.12595763857595Z" style="stroke: rgb(68, 68, 68); stroke-opacity: 1; fill: rgb(253, 185, 52); fill-opacity: 0.5; stroke-width: 0; opacity: 1;"/><path class="sankey-link" d="M366.6666666666667,24.93302093532572C443.33333333333337,24.93302093532572 443.33333333333337,139.91417004670157 520,139.91417004670157L520,139.91951838639088C443.33333333333337,139.91951838639088 443.33333333333337,24.938369275015056 366.6666666666667,24.938369275015056Z" style="stroke: rgb(253, 185, 52); stroke-opacity: 0; fill: rgb(253, 185, 52); fill-opacity: 0; stroke-width: 1; opacity: 1;"/><path class="sankey-link" d="M20,254.41905354376203C96.66666666666667,254.41905354376203 96.66666666666667,319.51284362325373 173.33333333333334,319.51284362325373L173.33333333333334,320C96.66666666666667,320 96.66666666666667,254.9062099205083 20,254.9062099205083Z" style="stroke: rgb(253, 185, 52); stroke-opacity: 0.5; fill: rgb(253, 185, 52); fill-opacity: 0.5; stroke-width: 1; opacity: 1;"/><path class="sankey-link" d="M193.33333333333334,319.51284362325373C270,319.51284362325373 270,254.41912286013277 346.6666666666667,254.41912286013277L346.6666666666667,254.90627923687904C270,254.90627923687904 270,320 193.33333333333334,320Z" style="stroke: rgb(253, 185, 52); stroke-opacity: 0.5; fill: rgb(253, 185, 52); fill-opacity: 0.5; stroke-width: 1; opacity: 1;"/><path class="sankey-link" d="M366.6666666666667,24.938369275015052C443.33333333333337,24.938369275015052 443.33333333333337,139.9195183863909 520,139.9195183863909L520,139.9248667260802C443.33333333333337,139.9248667260802 443.33333333333337,24.943717614704386 366.6666666666667,24.943717614704386Z" style="stroke: rgb(253, 185, 52); stroke-opacity: 0; fill: rgb(253, 185, 52); fill-opacity: 0; stroke-width: 1; opacity: 1;"/></g><g class="sankey-node-set" style="cursor: move;"><g class="sankey-node" transform="translate(0.000,24.906)" style="opacity: 1;"><rect class="node-rect" width="20" height="229.99999999999994" style="stroke-width: 0; stroke: rgb(68, 68, 68); stroke-opacity: 1; fill: rgb(253, 185, 52); fill-opacity: 1;"/><text class="node-label" data-notex="1" x="0" y="0" text-anchor="start" transform="translate(23,119.19999999999997)" style="cursor: default; font-family: 'Open Sans', verdana, arial, sans-serif; font-size: 12px; fill: rgb(65, 64, 66); fill-opacity: 1; white-space: pre; text-shadow: rgba(0, 0, 0, 0) 1px 1px 1px, rgba(0, 0, 0, 0) -1px -1px 1px, rgba(0, 0, 0, 0) 1px -1px 1px, rgba(0, 0, 0, 0) -1px 1px 1px;">The Coca-Cola Company (43.0bn)</text></g><g class="sankey-node" transform="translate(173.333,152.126)" style="opacity: 1;"><rect class="node-rect" width="20" height="38.98805768364127" style="stroke-width: 0; stroke: rgb(68, 68, 68); stroke-opacity: 1; fill: rgb(253, 185, 52); fill-opacity: 1;"/><text class="node-label" data-notex="1" x="0" y="0" text-anchor="start" transform="translate(23,23.694028841820636)" style="cursor: default; font-family: 'Open Sans', verdana, arial, sans-serif; font-size: 12px; fill: rgb(65, 64, 66); fill-opacity: 1; white-space: pre; text-shadow: rgba(0, 0, 0, 0) 1px 1px 1px, rgba(0, 0, 0, 0) -1px -1px 1px, rgba(0, 0, 0, 0) 1px -1px 1px, rgba(0, 0, 0, 0) -1px 1px 1px;">EMEA (7.29bn)</text></g><g class="sankey-node" transform="translate(173.333,249.333)" style="opacity: 1;"><rect class="node-rect" width="20" height="25.44614691302388" style="stroke-width: 0; stroke: rgb(68, 68, 68); stroke-opacity: 1; fill: rgb(253, 185, 52); fill-opacity: 1;"/><text class="node-label" data-notex="1" x="0" y="0" text-anchor="start" transform="translate(23,16.92307345651194)" style="cursor: default; font-family: 'Open Sans', verdana, arial, sans-serif; font-size: 12px; fill: rgb(65, 64, 66); fill-opacity: 1; white-space: pre; text-shadow: rgba(0, 0, 0, 0) 1px 1px 1px, rgba(0, 0, 0, 0) -1px -1px 1px, rgba(0, 0, 0, 0) 1px -1px 1px, rgba(0, 0, 0, 0) -1px 1px 1px;">Latin America (4.76bn)</text></g><g class="sankey-node" transform="translate(173.333,0.000)" style="opacity: 1;"><rect class="node-rect" width="20" height="81.23073456511938" style="stroke-width: 0; stroke: rgb(68, 68, 68); stroke-opacity: 1; fill: rgb(253, 185, 52); fill-opacity: 1;"/><text class="node-label" data-notex="1" x="0" y="0" text-anchor="start" transform="translate(23,44.81536728255969)" style="cursor: default; font-family: 'Open Sans', verdana, arial, sans-serif; font-size: 12px; fill: rgb(65, 64, 66); fill-opacity: 1; white-space: pre; text-shadow: rgba(0, 0, 0, 0) 1px 1px 1px, rgba(0, 0, 0, 0) -1px -1px 1px, rgba(0, 0, 0, 0) 1px -1px 1px, rgba(0, 0, 0, 0) -1px 1px 1px;">North America (15.19bn)</text></g><g class="sankey-node" transform="translate(173.333,206.114)" style="opacity: 1;"><rect class="node-rect" width="20" height="28.21879224876068" style="stroke-width: 0; stroke: rgb(68, 68, 68); stroke-opacity: 1; fill: rgb(253, 185, 52); fill-opacity: 1;"/><text class="node-label" data-notex="1" x="0" y="0" text-anchor="start" transform="translate(23,18.30939612438034)" style="cursor: default; font-family: 'Open Sans', verdana, arial, sans-serif; font-size: 12px; fill: rgb(65, 64, 66); fill-opacity: 1; white-space: pre; text-shadow: rgba(0, 0, 0, 0) 1px 1px 1px, rgba(0, 0, 0, 0) -1px -1px 1px, rgba(0, 0, 0, 0) 1px -1px 1px, rgba(0, 0, 0, 0) -1px 1px 1px;">Asia Pacific (5.28bn)</text></g><g class="sankey-node" transform="translate(173.333,289.779)" style="opacity: 1;"><rect class="node-rect" width="20" height="14.733889139251914" style="stroke-width: 0; stroke: rgb(68, 68, 68); stroke-opacity: 1; fill: rgb(253, 185, 52); fill-opacity: 1;"/><text class="node-label" data-notex="1" x="0" y="0" text-anchor="start" transform="translate(23,11.566944569625957)" style="cursor: default; font-family: 'Open Sans', verdana, arial, sans-serif; font-size: 12px; fill: rgb(65, 64, 66); fill-opacity: 1; white-space: pre; text-shadow: rgba(0, 0, 0, 0) 1px 1px 1px, rgba(0, 0, 0, 0) -1px -1px 1px, rgba(0, 0, 0, 0) 1px -1px 1px, rgba(0, 0, 0, 0) -1px 1px 1px;">Global Ventures (2.75bn)</text></g><g class="sankey-node" transform="translate(173.333,96.231)" style="opacity: 1;"><rect class="node-rect" width="20" height="40.89522307345655" style="stroke-width: 0; stroke: rgb(68, 68, 68); stroke-opacity: 1; fill: rgb(253, 185, 52); fill-opacity: 1;"/><text class="node-label" data-notex="1" x="0" y="0" text-anchor="start" transform="translate(23,24.647611536728274)" style="cursor: default; font-family: 'Open Sans', verdana, arial, sans-serif; font-size: 12px; fill: rgb(65, 64, 66); fill-opacity: 1; white-space: pre; text-shadow: rgba(0, 0, 0, 0) 1px 1px 1px, rgba(0, 0, 0, 0) -1px -1px 1px, rgba(0, 0, 0, 0) 1px -1px 1px, rgba(0, 0, 0, 0) -1px 1px 1px;">Bottling Investments (7.65bn)</text></g><g class="sankey-node" transform="translate(173.333,319.513)" style="opacity: 1;"><rect class="node-rect" width="20" height="0.5" style="stroke-width: 0; stroke: rgb(68, 68, 68); stroke-opacity: 1; fill: rgb(253, 185, 52); fill-opacity: 1;"/><text class="node-label" data-notex="1" x="0" y="0" text-anchor="start" transform="translate(23,4.449999999999999)" style="cursor: default; font-family: 'Open Sans', verdana, arial, sans-serif; font-size: 12px; fill: rgb(65, 64, 66); fill-opacity: 1; white-space: pre; text-shadow: rgba(0, 0, 0, 0) 1px 1px 1px, rgba(0, 0, 0, 0) -1px -1px 1px, rgba(0, 0, 0, 0) 1px -1px 1px, rgba(0, 0, 0, 0) -1px 1px 1px;">Corporate (0.09bn)</text></g><g class="sankey-node" transform="translate(346.667,24.906)" style="opacity: 1;"><rect class="node-rect" width="20" height="230.00000000000003" style="stroke-width: 0; stroke: rgb(68, 68, 68); stroke-opacity: 1; fill: rgb(253, 185, 52); fill-opacity: 1;"/><text class="node-label" data-notex="1" x="0" y="0" text-anchor="start" transform="translate(23,119.20000000000002)" style="cursor: default; font-family: 'Open Sans', verdana, arial, sans-serif; font-size: 12px; fill: rgb(65, 64, 66); fill-opacity: 1; white-space: pre; text-shadow: rgba(0, 0, 0, 0) 1px 1px 1px, rgba(0, 0, 0, 0) -1px -1px 1px, rgba(0, 0, 0, 0) 1px -1px 1px, rgba(0, 0, 0, 0) -1px 1px 1px;">Beverages (7.29bn)</text></g><g class="sankey-node" transform="translate(520.000,139.887)" style="opacity: 1;"><rect class="node-rect" width="20" height="0.5" style="stroke-width: 0; stroke: rgb(68, 68, 68); stroke-opacity: 1; fill: rgb(0, 0, 0); fill-opacity: 0;"/><text class="node-label" data-notex="1" x="0" y="0" text-anchor="end" transform="translate(-3,4.449999999999999)" style="cursor: default; font-family: 'Open Sans', verdana, arial, sans-serif; font-size: 12px; fill: rgb(65, 64, 66); fill-opacity: 1; white-space: pre; text-shadow: rgba(0, 0, 0, 0) 1px 1px 1px, rgba(0, 0, 0, 0) -1px -1px 1px, rgba(0, 0, 0, 0) 1px -1px 1px, rgba(0, 0, 0, 0) -1px 1px 1px;"></text></g></g></g><defs id="topdefs-986b26"><g class="clips"/></defs><g class="layer-above"><g class="imagelayer"/><g class="shapelayer"/></g><g class="infolayer"><g class="g-gtitle"/><g class="first-render"/></g></svg>